<svg width="41" height="40" viewBox="0 0 41 40" fill="none" xmlns="http://www.w3.org/2000/svg">
<path d="M18.8333 6.66664H7.16667C6.28261 6.66664 5.43477 7.01783 4.80965 7.64295C4.18453 8.26807 3.83334 9.11592 3.83334 9.99997V33.3333C3.83334 34.2174 4.18453 35.0652 4.80965 35.6903C5.43477 36.3154 6.28261 36.6666 7.16667 36.6666H30.5C31.3841 36.6666 32.2319 36.3154 32.857 35.6903C33.4821 35.0652 33.8333 34.2174 33.8333 33.3333V21.6666M31.3333 4.16664C31.9964 3.5036 32.8957 3.1311 33.8333 3.1311C34.771 3.1311 35.6703 3.5036 36.3333 4.16664C36.9964 4.82968 37.3689 5.72896 37.3689 6.66664C37.3689 7.60432 36.9964 8.5036 36.3333 9.16664L20.5 25L13.8333 26.6666L15.5 20L31.3333 4.16664Z" stroke="#1E1E1E" stroke-width="3.5" stroke-linecap="round" stroke-linejoin="round"/>
</svg>
