<svg width="98" height="26" viewBox="0 0 98 26" fill="none" xmlns="http://www.w3.org/2000/svg">
<g clip-path="url(#clip0_20_2)">
<path d="M49 15.5C50.3807 15.5 51.5 14.3807 51.5 13C51.5 11.6193 50.3807 10.5 49 10.5C47.6193 10.5 46.5 11.6193 46.5 13C46.5 14.3807 47.6193 15.5 49 15.5Z" stroke="#212121" stroke-width="2" stroke-linecap="round" stroke-linejoin="round"/>
<path d="M55.1667 15.5C55.0557 15.7513 55.0226 16.0301 55.0717 16.3005C55.1207 16.5708 55.2495 16.8202 55.4417 17.0166L55.4917 17.0666C55.6466 17.2214 55.7696 17.4052 55.8534 17.6076C55.9373 17.8099 55.9805 18.0268 55.9805 18.2458C55.9805 18.4648 55.9373 18.6817 55.8534 18.884C55.7696 19.0864 55.6466 19.2702 55.4917 19.425C55.3369 19.5799 55.1531 19.7029 54.9507 19.7867C54.7484 19.8706 54.5315 19.9138 54.3125 19.9138C54.0935 19.9138 53.8766 19.8706 53.6743 19.7867C53.4719 19.7029 53.2881 19.5799 53.1333 19.425L53.0833 19.375C52.8869 19.1829 52.6375 19.054 52.3672 19.005C52.0968 18.956 51.818 18.989 51.5667 19.1C51.3202 19.2056 51.11 19.381 50.9619 19.6046C50.8139 19.8282 50.7344 20.0902 50.7333 20.3583V20.5C50.7333 20.942 50.5577 21.3659 50.2452 21.6785C49.9326 21.9911 49.5087 22.1666 49.0667 22.1666C48.6246 22.1666 48.2007 21.9911 47.8882 21.6785C47.5756 21.3659 47.4 20.942 47.4 20.5V20.425C47.3935 20.1491 47.3043 19.8816 47.1438 19.6572C46.9833 19.4328 46.7589 19.2619 46.5 19.1666C46.2487 19.0557 45.9698 19.0226 45.6995 19.0716C45.4292 19.1207 45.1797 19.2495 44.9833 19.4416L44.9333 19.4916C44.7785 19.6466 44.5947 19.7695 44.3924 19.8534C44.1901 19.9373 43.9732 19.9805 43.7542 19.9805C43.5351 19.9805 43.3183 19.9373 43.1159 19.8534C42.9136 19.7695 42.7298 19.6466 42.575 19.4916C42.42 19.3369 42.2971 19.153 42.2132 18.9507C42.1294 18.7484 42.0862 18.5315 42.0862 18.3125C42.0862 18.0935 42.1294 17.8766 42.2132 17.6742C42.2971 17.4719 42.42 17.2881 42.575 17.1333L42.625 17.0833C42.8171 16.8869 42.946 16.6375 42.995 16.3671C43.044 16.0968 43.0109 15.818 42.9 15.5666C42.7944 15.3202 42.619 15.11 42.3954 14.9619C42.1718 14.8138 41.9098 14.7344 41.6417 14.7333H41.5C41.058 14.7333 40.634 14.5577 40.3215 14.2452C40.0089 13.9326 39.8333 13.5087 39.8333 13.0666C39.8333 12.6246 40.0089 12.2007 40.3215 11.8881C40.634 11.5756 41.058 11.4 41.5 11.4H41.575C41.8508 11.3935 42.1183 11.3042 42.3427 11.1437C42.5672 10.9832 42.7381 10.7589 42.8333 10.5C42.9443 10.2486 42.9774 9.96982 42.9283 9.69949C42.8793 9.42916 42.7504 9.17971 42.5583 8.98331L42.5083 8.93331C42.3534 8.77852 42.2304 8.59471 42.1466 8.39238C42.0627 8.19005 42.0195 7.97317 42.0195 7.75415C42.0195 7.53512 42.0627 7.31824 42.1466 7.11591C42.2304 6.91358 42.3534 6.72977 42.5083 6.57498C42.6631 6.42002 42.8469 6.29709 43.0493 6.21321C43.2516 6.12934 43.4685 6.08617 43.6875 6.08617C43.9065 6.08617 44.1234 6.12934 44.3257 6.21321C44.5281 6.29709 44.7119 6.42002 44.8667 6.57498L44.9167 6.62498C45.1131 6.81709 45.3625 6.94597 45.6328 6.99498C45.9032 7.044 46.182 7.01091 46.4333 6.89998H46.5C46.7465 6.79434 46.9567 6.61894 47.1047 6.39537C47.2528 6.17179 47.3323 5.9098 47.3333 5.64165V5.49998C47.3333 5.05795 47.5089 4.63403 47.8215 4.32147C48.134 4.00891 48.558 3.83331 49 3.83331C49.442 3.83331 49.8659 4.00891 50.1785 4.32147C50.4911 4.63403 50.6667 5.05795 50.6667 5.49998V5.57498C50.6677 5.84313 50.7472 6.10513 50.8953 6.3287C51.0433 6.55228 51.2535 6.72768 51.5 6.83331C51.7513 6.94424 52.0302 6.97733 52.3005 6.92832C52.5708 6.8793 52.8203 6.75043 53.0167 6.55831L53.0667 6.50831C53.2215 6.35335 53.4053 6.23042 53.6076 6.14655C53.8099 6.06267 54.0268 6.0195 54.2458 6.0195C54.4649 6.0195 54.6817 6.06267 54.8841 6.14655C55.0864 6.23042 55.2702 6.35335 55.425 6.50831C55.58 6.6631 55.7029 6.84692 55.7868 7.04925C55.8706 7.25158 55.9138 7.46845 55.9138 7.68748C55.9138 7.90651 55.8706 8.12338 55.7868 8.32571C55.7029 8.52804 55.58 8.71186 55.425 8.86665L55.375 8.91665C55.1829 9.11304 55.054 9.36249 55.005 9.63282C54.956 9.90315 54.9891 10.182 55.1 10.4333V10.5C55.2056 10.7465 55.381 10.9567 55.6046 11.1047C55.8282 11.2528 56.0902 11.3322 56.3583 11.3333H56.5C56.942 11.3333 57.3659 11.5089 57.6785 11.8215C57.9911 12.134 58.1667 12.558 58.1667 13C58.1667 13.442 57.9911 13.8659 57.6785 14.1785C57.3659 14.4911 56.942 14.6666 56.5 14.6666H56.425C56.1568 14.6677 55.8949 14.7472 55.6713 14.8952C55.4477 15.0433 55.2723 15.2535 55.1667 15.5Z" stroke="#212121" stroke-width="2" stroke-linecap="round" stroke-linejoin="round"/>
</g>
<defs>
<clipPath id="clip0_20_2">
<rect width="20" height="20" fill="white" transform="translate(39 3)"/>
</clipPath>
</defs>
</svg>
