<svg width="40" height="40" viewBox="0 0 40 40" fill="none" xmlns="http://www.w3.org/2000/svg">
<path d="M9.99999 15V3.33334H30V15M9.99999 30H6.66666C5.78261 30 4.93476 29.6488 4.30964 29.0237C3.68452 28.3986 3.33333 27.5507 3.33333 26.6667V18.3333C3.33333 17.4493 3.68452 16.6014 4.30964 15.9763C4.93476 15.3512 5.78261 15 6.66666 15H33.3333C34.2174 15 35.0652 15.3512 35.6903 15.9763C36.3155 16.6014 36.6667 17.4493 36.6667 18.3333V26.6667C36.6667 27.5507 36.3155 28.3986 35.6903 29.0237C35.0652 29.6488 34.2174 30 33.3333 30H30M9.99999 23.3333H30V36.6667H9.99999V23.3333Z" stroke="#1E1E1E" stroke-width="3.5" stroke-linecap="round" stroke-linejoin="round"/>
</svg>
